<?xml version="1.0" encoding="UTF-8" standalone="no"?>
<!-- Created with Inkscape (http://www.inkscape.org/) -->

<svg
   width="448"
   height="448"
   viewBox="0 0 0.875 0.875"
   version="1.1"
   id="svg1"
   inkscape:version="1.4.2 (ebf0e940d0, 2025-05-08)"
   sodipodi:docname="mine_counts.svg"
   inkscape:export-filename="../project/sprites/pawn.png"
   inkscape:export-xdpi="1200"
   inkscape:export-ydpi="1200"
   inkscape:export-batch-path="../project/sprites"
   inkscape:export-batch-name="mine_count_"
   xmlns:inkscape="http://www.inkscape.org/namespaces/inkscape"
   xmlns:sodipodi="http://sodipodi.sourceforge.net/DTD/sodipodi-0.dtd"
   xmlns="http://www.w3.org/2000/svg"
   xmlns:svg="http://www.w3.org/2000/svg">
  <sodipodi:namedview
     id="namedview1"
     pagecolor="#afafaf"
     bordercolor="#666666"
     borderopacity="1.0"
     inkscape:showpageshadow="2"
     inkscape:pageopacity="0.0"
     inkscape:pagecheckerboard="true"
     inkscape:deskcolor="#d1d1d1"
     inkscape:document-units="mm"
     showgrid="true"
     inkscape:zoom="0.69842875"
     inkscape:cx="83.043546"
     inkscape:cy="216.91547"
     inkscape:window-width="1920"
     inkscape:window-height="1004"
     inkscape:window-x="0"
     inkscape:window-y="0"
     inkscape:window-maximized="1"
     inkscape:current-layer="layer2">
    <inkscape:grid
       id="grid1"
       units="pt"
       originx="-0.0625"
       originy="-0.0625"
       spacingx="0.015625"
       spacingy="0.015625"
       empcolor="#ffffff"
       empopacity="1"
       color="#dadada"
       opacity="1"
       empspacing="16"
       enabled="true"
       visible="true" />
  </sodipodi:namedview>
  <defs
     id="defs1">
    <inkscape:path-effect
       effect="powerclip"
       message=""
       id="path-effect27"
       is_visible="true"
       lpeversion="1"
       inverse="true"
       flatten="false"
       hide_clip="false" />
    <inkscape:path-effect
       effect="powerclip"
       message=""
       id="path-effect26"
       is_visible="true"
       lpeversion="1"
       inverse="true"
       flatten="false"
       hide_clip="false" />
    <inkscape:path-effect
       effect="powerclip"
       message=""
       id="path-effect25"
       is_visible="true"
       lpeversion="1"
       inverse="true"
       flatten="false"
       hide_clip="false" />
    <inkscape:path-effect
       effect="powerclip"
       message=""
       id="path-effect24"
       is_visible="true"
       lpeversion="1"
       inverse="true"
       flatten="false"
       hide_clip="false" />
    <inkscape:path-effect
       effect="powerclip"
       message=""
       id="path-effect23"
       is_visible="true"
       lpeversion="1"
       inverse="true"
       flatten="false"
       hide_clip="false" />
    <inkscape:path-effect
       effect="powerclip"
       message=""
       id="path-effect22"
       is_visible="true"
       lpeversion="1"
       inverse="true"
       flatten="false"
       hide_clip="false" />
    <inkscape:path-effect
       effect="powerclip"
       message=""
       id="path-effect19"
       is_visible="true"
       lpeversion="1"
       inverse="true"
       flatten="false"
       hide_clip="false" />
    <inkscape:path-effect
       effect="powerclip"
       message=""
       id="path-effect13"
       is_visible="true"
       lpeversion="1"
       inverse="true"
       flatten="false"
       hide_clip="false" />
    <inkscape:path-effect
       effect="powerclip"
       message=""
       id="path-effect7"
       is_visible="true"
       lpeversion="1"
       inverse="true"
       flatten="false"
       hide_clip="false" />
    <inkscape:path-effect
       effect="powerclip"
       message=""
       id="path-effect5"
       is_visible="true"
       lpeversion="1"
       inverse="true"
       flatten="false"
       hide_clip="false" />
    <inkscape:path-effect
       effect="powerclip"
       message=""
       id="path-effect21"
       is_visible="true"
       lpeversion="1"
       inverse="true"
       flatten="false"
       hide_clip="false" />
    <inkscape:path-effect
       effect="powerclip"
       message=""
       id="path-effect20"
       is_visible="true"
       lpeversion="1"
       inverse="true"
       flatten="false"
       hide_clip="false" />
    <inkscape:path-effect
       effect="powerclip"
       message=""
       id="path-effect18"
       is_visible="true"
       lpeversion="1"
       inverse="true"
       flatten="false"
       hide_clip="false" />
    <inkscape:path-effect
       effect="powerclip"
       message=""
       id="path-effect17"
       is_visible="true"
       lpeversion="1"
       inverse="true"
       flatten="false"
       hide_clip="false" />
    <inkscape:path-effect
       effect="powerclip"
       message=""
       id="path-effect14"
       is_visible="true"
       lpeversion="1"
       inverse="true"
       flatten="false"
       hide_clip="false" />
    <inkscape:path-effect
       effect="powerclip"
       message=""
       id="path-effect3"
       is_visible="true"
       lpeversion="1"
       inverse="true"
       flatten="false"
       hide_clip="false" />
    <filter
       id="mask-powermask-path-effect3_inverse"
       inkscape:label="filtermask-powermask-path-effect3"
       style="color-interpolation-filters:sRGB"
       height="100"
       width="100"
       x="-50"
       y="-50">
      <feColorMatrix
         id="mask-powermask-path-effect3_primitive1"
         values="1"
         type="saturate"
         result="fbSourceGraphic" />
      <feColorMatrix
         id="mask-powermask-path-effect3_primitive2"
         values="-1 0 0 0 1 0 -1 0 0 1 0 0 -1 0 1 0 0 0 1 0 "
         in="fbSourceGraphic" />
    </filter>
    <filter
       id="mask-powermask-path-effect12_inverse"
       inkscape:label="filtermask-powermask-path-effect12"
       style="color-interpolation-filters:sRGB"
       height="100"
       width="100"
       x="-50"
       y="-50">
      <feColorMatrix
         id="mask-powermask-path-effect12_primitive1"
         values="1"
         type="saturate"
         result="fbSourceGraphic" />
      <feColorMatrix
         id="mask-powermask-path-effect12_primitive2"
         values="-1 0 0 0 1 0 -1 0 0 1 0 0 -1 0 1 0 0 0 1 0 "
         in="fbSourceGraphic" />
    </filter>
    <filter
       id="mask-powermask-path-effect15_inverse"
       inkscape:label="filtermask-powermask-path-effect15"
       style="color-interpolation-filters:sRGB"
       height="100"
       width="100"
       x="-50"
       y="-50">
      <feColorMatrix
         id="mask-powermask-path-effect15_primitive1"
         values="1"
         type="saturate"
         result="fbSourceGraphic" />
      <feColorMatrix
         id="mask-powermask-path-effect15_primitive2"
         values="-1 0 0 0 1 0 -1 0 0 1 0 0 -1 0 1 0 0 0 1 0 "
         in="fbSourceGraphic" />
    </filter>
    <filter
       id="mask-powermask-path-effect17_inverse"
       inkscape:label="filtermask-powermask-path-effect17"
       style="color-interpolation-filters:sRGB"
       height="100"
       width="100"
       x="-50"
       y="-50">
      <feColorMatrix
         id="mask-powermask-path-effect17_primitive1"
         values="1"
         type="saturate"
         result="fbSourceGraphic" />
      <feColorMatrix
         id="mask-powermask-path-effect17_primitive2"
         values="-1 0 0 0 1 0 -1 0 0 1 0 0 -1 0 1 0 0 0 1 0 "
         in="fbSourceGraphic" />
    </filter>
    <clipPath
       clipPathUnits="userSpaceOnUse"
       id="clipath_lpe_path-effect20-7">
      <ellipse
         style="display:none;fill:#ffffff;fill-opacity:1;stroke:none;stroke-width:0.0625;stroke-linecap:round;stroke-linejoin:round;stroke-dasharray:none;stroke-opacity:1"
         id="ellipse20-5"
         cx="0.49999997"
         cy="0.50051802"
         rx="0.12499999"
         ry="0.12551804"
         inkscape:label="circle" />
      <path
         id="lpe_path-effect20-3"
         style="fill:#ffffff;fill-opacity:1;stroke:none;stroke-width:0.0625;stroke-linecap:round;stroke-linejoin:round;stroke-dasharray:none;stroke-opacity:1"
         class="powerclip"
         d="M -4.6875008,-4.8125005 H 5.6874982 V 5.781248 H -4.6875008 Z M 0.62499996,0.50051802 A 0.12499999,0.12551804 0 0 0 0.49999997,0.37499999 0.12499999,0.12551804 0 0 0 0.37499998,0.50051802 0.12499999,0.12551804 0 0 0 0.49999997,0.62603606 0.12499999,0.12551804 0 0 0 0.62499996,0.50051802 Z" />
    </clipPath>
    <inkscape:path-effect
       effect="powerclip"
       message=""
       id="path-effect20-5"
       is_visible="true"
       lpeversion="1"
       inverse="true"
       flatten="false"
       hide_clip="false" />
    <clipPath
       clipPathUnits="userSpaceOnUse"
       id="clipPath3-6">
      <path
         style="baseline-shift:baseline;display:none;overflow:visible;opacity:1;vector-effect:none;fill:#ffffff;fill-opacity:1;stroke:none;stroke-width:0.999997;enable-background:accumulate;stop-color:#000000;stop-opacity:1"
         d="M 0.28125001,0.60351562 0.41992188,0.8125 H 0.58007812 L 0.71875,0.60351562 Z"
         id="path5-2"
         inkscape:label="cutout"
         sodipodi:nodetypes="ccccc" />
      <path
         id="lpe_path-effect5-9"
         style="baseline-shift:baseline;display:block;overflow:visible;opacity:1;vector-effect:none;fill:#ffffff;fill-opacity:1;stroke:none;stroke-width:0.999997;enable-background:accumulate;stop-color:#000000;stop-opacity:1"
         class="powerclip"
         d="M -4.7812507,-4.316485 H 5.78125 V 5.875 H -4.7812507 Z M 0.28125001,0.60351562 0.41992188,0.8125 H 0.58007812 L 0.71875,0.60351562 Z" />
    </clipPath>
    <inkscape:path-effect
       effect="powerclip"
       message=""
       id="path-effect5-1"
       is_visible="true"
       lpeversion="1"
       inverse="true"
       flatten="false"
       hide_clip="false" />
    <clipPath
       clipPathUnits="userSpaceOnUse"
       id="clipPath7-1">
      <ellipse
         style="display:none;fill:#ffffff;fill-opacity:1;stroke:none;stroke-width:0.0625;stroke-linecap:round;stroke-linejoin:round;stroke-dasharray:none;stroke-opacity:1"
         id="ellipse7-2"
         cx="0.49999997"
         cy="0.53124994"
         rx="0.18749999"
         ry="0.18801804"
         inkscape:label="cutout" />
      <path
         id="lpe_path-effect7-9"
         style="display:inline;fill:#ffffff;fill-opacity:1;stroke:none;stroke-width:0.0625;stroke-linecap:round;stroke-linejoin:round;stroke-dasharray:none;stroke-opacity:1"
         class="powerclip"
         d="M -4.7500006,-4.3125034 H 5.75 V 5.875 H -4.7500006 Z M 0.68749996,0.53124994 A 0.18749999,0.18801804 0 0 0 0.49999997,0.3432319 0.18749999,0.18801804 0 0 0 0.31249999,0.53124994 0.18749999,0.18801804 0 0 0 0.49999997,0.71926798 0.18749999,0.18801804 0 0 0 0.68749996,0.53124994 Z" />
    </clipPath>
    <inkscape:path-effect
       effect="powerclip"
       message=""
       id="path-effect7-3"
       is_visible="true"
       lpeversion="1"
       inverse="true"
       flatten="false"
       hide_clip="false" />
    <clipPath
       clipPathUnits="userSpaceOnUse"
       id="clipPath19">
      <ellipse
         style="display:none;fill:#ffffff;fill-opacity:1;stroke:none;stroke-width:0.0624998;stroke-linecap:round;stroke-linejoin:round;stroke-dasharray:none;stroke-opacity:1"
         id="ellipse19"
         cx="0.49999997"
         cy="0.53124994"
         rx="0.18749999"
         ry="0.18801804"
         inkscape:label="cutout" />
    </clipPath>
    <clipPath
       clipPathUnits="userSpaceOnUse"
       id="clipPath20">
      <ellipse
         style="display:none;fill:#ffffff;fill-opacity:1;stroke:none;stroke-width:0.0624998;stroke-linecap:round;stroke-linejoin:round;stroke-dasharray:none;stroke-opacity:1"
         id="ellipse20"
         cx="0.49999997"
         cy="0.53124994"
         rx="0.18749999"
         ry="0.18801804"
         inkscape:label="cutout" />
    </clipPath>
    <clipPath
       clipPathUnits="userSpaceOnUse"
       id="clipPath22">
      <ellipse
         style="display:none;fill:#ffffff;fill-opacity:1;stroke:none;stroke-width:0.0624998;stroke-linecap:round;stroke-linejoin:round;stroke-dasharray:none;stroke-opacity:1"
         id="ellipse22"
         cx="0.49999997"
         cy="0.53124994"
         rx="0.18749999"
         ry="0.18801804"
         inkscape:label="cutout" />
    </clipPath>
    <clipPath
       clipPathUnits="userSpaceOnUse"
       id="clipPath23">
      <ellipse
         style="display:none;fill:#000000;fill-opacity:1;stroke:none;stroke-width:0.0624998;stroke-linecap:round;stroke-linejoin:round;stroke-dasharray:none;stroke-opacity:1"
         id="ellipse23"
         cx="0.49999997"
         cy="0.49999997"
         rx="0.12499999"
         ry="0.12551804"
         inkscape:label="face_cutout" />
    </clipPath>
    <clipPath
       clipPathUnits="userSpaceOnUse"
       id="clipPath24">
      <path
         style="display:block;fill:#ffffff;fill-opacity:1;stroke:none;stroke-width:0.0624998;stroke-linecap:butt;stroke-linejoin:miter;stroke-dasharray:none;stroke-opacity:1"
         d="m 0.25000063,0.65625013 0.24999934,0.0624998 0.24999936,-0.0624998"
         id="path24"
         inkscape:label="neck_cutout"
         clip-path="none" />
    </clipPath>
    <clipPath
       clipPathUnits="userSpaceOnUse"
       id="clipPath25">
      <ellipse
         style="display:none;fill:#ffffff;fill-opacity:1;stroke:none;stroke-width:0.0624998;stroke-linecap:round;stroke-linejoin:round;stroke-dasharray:none;stroke-opacity:1"
         id="ellipse25"
         cx="0.49999997"
         cy="0.50051802"
         rx="0.12499999"
         ry="0.12551804"
         inkscape:label="circle" />
    </clipPath>
    <clipPath
       clipPathUnits="userSpaceOnUse"
       id="clipPath26">
      <path
         style="baseline-shift:baseline;display:block;overflow:visible;opacity:1;vector-effect:none;fill:#ffffff;fill-opacity:1;stroke:none;stroke-width:0.999996;enable-background:accumulate;stop-color:#000000;stop-opacity:1"
         d="m 0.28125001,0.60351561 0.13867187,0.2089844 h 0.16015623 l 0.1386719,-0.2089844 z"
         id="path26"
         inkscape:label="cutout"
         sodipodi:nodetypes="ccccc" />
    </clipPath>
    <mask
       maskUnits="userSpaceOnUse"
       id="mask4">
      <rect
         style="fill:#ffffff;stroke:none;stroke-width:0.166667;stroke-linecap:round;stroke-linejoin:round;stroke-opacity:1;paint-order:stroke fill markers"
         id="rect5"
         width="0.18750048"
         height="0.12500031"
         x="0.34375089"
         y="0.3125008"
         inkscape:label="upper_mask" />
    </mask>
    <mask
       maskUnits="userSpaceOnUse"
       id="mask12">
      <rect
         style="fill:#ffffff;stroke:none;stroke-width:0.166667;stroke-linecap:round;stroke-linejoin:round;stroke-opacity:1;paint-order:stroke fill markers"
         id="rect13"
         width="0.1562504"
         height="0.10937528"
         x="0.35937592"
         y="0.32812583"
         inkscape:label="upper_mask" />
    </mask>
  </defs>
  <g
     inkscape:groupmode="layer"
     id="layer2"
     inkscape:label="one"
     style="display:inline">
    <path
       style="fill:#ffffff;stroke:none;stroke-width:0.166667;stroke-linecap:round;stroke-linejoin:round;paint-order:stroke fill markers"
       d="M 0.40625104,0.43750112 V 0.40625104 L 0.4687512,0.34375088 V 0.53125136 H 0.43750112 V 0.40625104 Z"
       id="path1"
       inkscape:label="one" />
    <path
       style="display:inline;fill:none;stroke:none;stroke-width:0.00195312;stroke-linecap:butt;stroke-linejoin:miter;stroke-dasharray:none;stroke-opacity:1"
       d="M 0,0 H 0.875 V 0.875 H 0 Z"
       id="path13"
       sodipodi:nodetypes="ccccc"
       inkscape:label="export_size"
       sodipodi:insensitive="true" />
  </g>
  <g
     inkscape:groupmode="layer"
     id="layer3"
     inkscape:label="two"
     style="display:inline">
    <path
       style="fill:#ffffff;stroke:none;stroke-width:0.166667;stroke-linecap:round;stroke-linejoin:round;stroke-opacity:1;paint-order:stroke fill markers"
       d="m 0.43750112,0.43750112 c 0.0312489,5.6e-7 0.0312501,-0.0312501 0.0312501,-0.0312501 0,0 -1.22e-6,-0.031251 -0.0312501,-0.0312501 -0.0312489,9.2e-7 -0.0312501,0.0312501 -0.0312501,0.0312501 h -0.0312501 c 0,0 1.32e-6,-0.0624994 0.0625002,-0.0625002 0.0624989,-8.2e-7 0.0625002,0.0625002 0.0625002,0.0625002 0,0 -1.32e-6,0.0625026 -0.0625002,0.0625002 -0.0312511,-1.22e-6 -0.0312501,0.0312501 -0.0312501,0.0312501 h 0.0937502 v 0.0312501 H 0.37500096 v -0.0312501 c 0,0 -9.6e-7,-0.0625013 0.0625002,-0.0625002 z"
       id="path2"
       sodipodi:nodetypes="sczcczcscccccs" />
    <path
       style="display:inline;fill:none;stroke:none;stroke-width:0.00195312;stroke-linecap:butt;stroke-linejoin:miter;stroke-dasharray:none;stroke-opacity:1"
       d="M 0,0 H 0.875 V 0.875 H 0 Z"
       id="path14"
       sodipodi:nodetypes="ccccc"
       inkscape:label="export_size"
       sodipodi:insensitive="true" />
  </g>
  <g
     inkscape:groupmode="layer"
     id="layer4"
     inkscape:label="three"
     style="display:inline">
    <path
       style="fill:#ffffff;stroke:none;stroke-width:0.166667;stroke-linecap:round;stroke-linejoin:round;stroke-opacity:1;paint-order:stroke fill markers"
       d="M 0.43750112,0.40625104 C 0.5,0.40625 0.50000132,0.46875124 0.50000132,0.46875124 c 0,0 -1.32e-6,0.0624988 -0.0625002,0.0625002 -0.0624989,1.44e-6 -0.0625002,-0.0625002 -0.0625002,-0.0625002 h 0.0312501 c 0,0 1.22e-6,0.0312514 0.0312501,0.0312501 C 0.46875,0.5 0.46875122,0.46875124 0.46875122,0.46875124 c 0,0 -1.22e-6,-0.0312512 -0.0312501,-0.0312501 -1.12e-6,-1.14e-6 0,-0.0312501 0,-0.0312501 z"
       id="path3"
       sodipodi:nodetypes="cczcczccc"
       inkscape:label="lower" />
    <path
       style="fill:#ffffff;stroke:none;stroke-width:0.166667;stroke-linecap:round;stroke-linejoin:round;stroke-opacity:1;paint-order:stroke fill markers"
       d="m 0.40625104,0.40625104 h -0.0312501 c 0,0 1.34e-6,-0.0624994 0.0625002,-0.0625002 0.0624989,-8.4e-7 0.0625002,0.0625002 0.0625002,0.0625002 0,0 -1.34e-6,0.062499 -0.0625013,0.062499 0,0 0,-0.03125 1.14e-6,-0.0312489 0.0312489,-1.14e-6 0.0312501,-0.0312501 0.0312501,-0.0312501 0,0 -1.24e-6,-0.031251 -0.0312501,-0.0312501 -0.0312489,9.4e-7 -0.0312501,0.0312501 -0.0312501,0.0312501 z"
       id="path4"
       sodipodi:nodetypes="cczcccczc"
       inkscape:label="upper"
       mask="url(#mask4)" />
    <path
       style="display:inline;fill:none;stroke:none;stroke-width:0.00195312;stroke-linecap:butt;stroke-linejoin:miter;stroke-dasharray:none;stroke-opacity:1"
       d="M 0,0 H 0.875 V 0.875 H 0 Z"
       id="path15"
       sodipodi:nodetypes="ccccc"
       inkscape:label="export_size"
       sodipodi:insensitive="true" />
  </g>
  <g
     inkscape:groupmode="layer"
     id="layer5"
     inkscape:label="four"
     style="display:inline">
    <path
       style="fill:#ffffff;stroke:none;stroke-width:0.166667;stroke-linecap:round;stroke-linejoin:round;stroke-opacity:1;paint-order:stroke fill markers"
       d="m 0.43750112,0.43750112 v -0.0312501 h 0.0312501 v 0.0312501 h 0.0312501 V 0.4687512 H 0.4687512 V 0.5312514 H 0.43750112 V 0.4687512 h -0.0937502 l 0.0625002,-0.12500032 h 0.0312501 L 0.390625,0.4375 Z"
       id="path5"
       sodipodi:nodetypes="ccccccccccccccc" />
    <path
       style="display:inline;fill:none;stroke:none;stroke-width:0.00195312;stroke-linecap:butt;stroke-linejoin:miter;stroke-dasharray:none;stroke-opacity:1"
       d="M 0,0 H 0.875 V 0.875 H 0 Z"
       id="path16"
       sodipodi:nodetypes="ccccc"
       inkscape:label="export_size"
       sodipodi:insensitive="true" />
  </g>
  <g
     inkscape:groupmode="layer"
     id="layer6"
     inkscape:label="five"
     style="display:inline">
    <path
       style="fill:#ffffff;stroke:none;stroke-width:0.166667;stroke-linecap:round;stroke-linejoin:round;stroke-opacity:1;paint-order:stroke fill markers"
       d="m 0.43750112,0.43750112 c 0.0312489,-1.12e-6 0.0312501,0.0312501 0.0312501,0.0312501 0,0 -1.22e-6,0.0312488 -0.0312501,0.0312501 -0.0312489,1.32e-6 -0.0312501,-0.0312501 -0.0312501,-0.0312501 h -0.0312501 c 0,0 1.32e-6,0.0625016 0.0625002,0.0625002 C 0.5,0.53125 0.50000132,0.46875122 0.50000132,0.46875122 c 0,0 -1.32e-6,-0.0625012 -0.0625002,-0.0625002 h -0.0312501 v -0.0312501 h 0.0937502 v -0.03125 H 0.37500096 v 0.0937502 c 0,0 0.0312513,1.12e-6 0.0625002,0 z"
       id="path6"
       sodipodi:nodetypes="zczcczccccccccz" />
    <path
       style="display:inline;fill:none;stroke:none;stroke-width:0.00195312;stroke-linecap:butt;stroke-linejoin:miter;stroke-dasharray:none;stroke-opacity:1"
       d="M 0,0 H 0.875 V 0.875 H 0 Z"
       id="path17"
       sodipodi:nodetypes="ccccc"
       inkscape:label="export_size"
       sodipodi:insensitive="true" />
  </g>
  <g
     inkscape:groupmode="layer"
     id="layer7"
     inkscape:label="six"
     style="display:inline">
    <path
       style="fill:#ffffff;stroke:none;stroke-width:0.166667;stroke-linecap:round;stroke-linejoin:round;stroke-opacity:1;paint-order:stroke fill markers"
       d="m 0.43750112,0.43750112 c 0.0312489,-1.12e-6 0.0312501,0.0312501 0.0312501,0.0312501 0,0 -1.22e-6,0.0312488 -0.0312501,0.0312501 -0.0312489,1.32e-6 -0.0312501,-0.0312501 -0.0312501,-0.0312501 0,0 -2.04e-6,-0.0312523 0.031249,-0.0312512 V 0.4062499 c -0.062501,-1.02e-6 -0.0624991,0.0625013 -0.0624991,0.0625013 0,0 1.32e-6,0.0625016 0.0625002,0.0625002 0.0624989,-1.4e-6 0.0625002,-0.0625002 0.0625002,-0.0625002 0,0 -1.32e-6,-0.0625012 -0.0625002,-0.0625002 z"
       id="path7"
       sodipodi:nodetypes="cczcccczccc"
       inkscape:label="lower" />
    <path
       style="fill:#ffffff;stroke:none;stroke-width:0.166667;stroke-linecap:round;stroke-linejoin:round;stroke-opacity:1;paint-order:stroke fill markers"
       d="M 0.37500096,0.4687512 V 0.406251 c 0,0 1.36e-6,-0.0624994 0.0625002,-0.0625002 C 0.5,0.34375 0.50000136,0.406251 0.50000136,0.406251 H 0.4687512 c 0,0 -1.2e-6,-0.031251 -0.0312501,-0.0312501 -0.0312489,9e-7 -0.0312501,0.0312501 -0.0312501,0.0312501 v 0.0625002 z"
       id="path9"
       sodipodi:nodetypes="cczcczccc"
       inkscape:label="upper" />
    <path
       style="display:inline;fill:none;stroke:none;stroke-width:0.00195312;stroke-linecap:butt;stroke-linejoin:miter;stroke-dasharray:none;stroke-opacity:1"
       d="M 0,0 H 0.875 V 0.875 H 0 Z"
       id="path18"
       sodipodi:nodetypes="ccccc"
       inkscape:label="export_size"
       sodipodi:insensitive="true" />
  </g>
  <g
     inkscape:groupmode="layer"
     id="layer8"
     inkscape:label="seven"
     style="display:inline">
    <path
       style="fill:#ffffff;stroke:none;stroke-width:0.166667;stroke-linecap:round;stroke-linejoin:round;stroke-opacity:1;paint-order:stroke fill markers"
       d="m 0.43750112,0.53125136 h -0.0312501 l 0.0625002,-0.1562504 h -0.0937502 v -0.0312501 h 0.12500032 v 0.0312501 z"
       id="path10" />
    <path
       style="display:inline;fill:none;stroke:none;stroke-width:0.00195312;stroke-linecap:butt;stroke-linejoin:miter;stroke-dasharray:none;stroke-opacity:1"
       d="M 0,0 H 0.875 V 0.875 H 0 Z"
       id="path19"
       sodipodi:nodetypes="ccccc"
       inkscape:label="export_size"
       sodipodi:insensitive="true" />
  </g>
  <g
     inkscape:groupmode="layer"
     id="layer9"
     inkscape:label="eight"
     style="display:inline">
    <path
       style="fill:#ffffff;stroke:none;stroke-width:0.166667;stroke-linecap:round;stroke-linejoin:round;stroke-opacity:1;paint-order:stroke fill markers"
       d="m 0.4375,0.4375 c 0.03125,0 0.0312512,0.0312512 0.0312512,0.0312512 0,0 -1.22e-6,0.0312488 -0.0312501,0.0312501 -0.0312489,1.32e-6 -0.0312501,-0.0312501 -0.0312501,-0.0312501 0,0 -2.04e-6,-0.0312523 0.031249,-0.0312512 V 0.4062499 c -0.062501,-1.02e-6 -0.0624991,0.0625013 -0.0624991,0.0625013 0,0 1.32e-6,0.0625016 0.0625002,0.0625002 C 0.5,0.53125 0.5000013,0.4687512 0.5000013,0.4687512 c 0,0 -1.32e-6,-0.0625012 -0.0625002,-0.0625002 z"
       id="path11"
       sodipodi:nodetypes="cczcccczccc"
       inkscape:label="lower" />
    <path
       style="fill:#ffffff;stroke:none;stroke-width:0.166667;stroke-linecap:round;stroke-linejoin:round;stroke-opacity:1;paint-order:stroke fill markers"
       d="m 0.43749944,0.37499949 c 0.03125,0 0.0312512,0.0312512 0.0312512,0.0312512 0,0 -1.22e-6,0.0312488 -0.0312501,0.0312501 -0.0312489,1.32e-6 -0.0312501,-0.0312501 -0.0312501,-0.0312501 0,0 -2.04e-6,-0.0312523 0.031249,-0.0312512 v -0.0312501 c -0.062501,-1.02e-6 -0.0624991,0.0625013 -0.0624991,0.0625013 0,0 1.32e-6,0.0625016 0.0625002,0.0625002 0.0624989,-1.4e-6 0.0625002,-0.0625002 0.0625002,-0.0625002 0,0 -1.32e-6,-0.0625012 -0.0625002,-0.0625002 z"
       id="path12"
       sodipodi:nodetypes="cczcccczccc"
       inkscape:label="upper"
       mask="url(#mask12)" />
    <path
       style="display:inline;fill:none;stroke:none;stroke-width:0.00195312;stroke-linecap:butt;stroke-linejoin:miter;stroke-dasharray:none;stroke-opacity:1"
       d="M 0,0 H 0.875 V 0.875 H 0 Z"
       id="path20"
       sodipodi:nodetypes="ccccc"
       inkscape:label="export_size"
       sodipodi:insensitive="true" />
  </g>
</svg>
